<?xml version="1.0" encoding="UTF-8" standalone="no"?>
<!DOCTYPE svg PUBLIC "-//W3C//DTD SVG 1.1//EN"
 "http://www.w3.org/Graphics/SVG/1.1/DTD/svg11.dtd">
<!-- Generated by graphviz version 2.38.0 (20140413.2041)
 -->
<!-- Title: models_diagram Pages: 1 -->
<svg width="782pt" height="551pt"
 viewBox="0.00 0.00 782.50 551.00" xmlns="http://www.w3.org/2000/svg" xmlns:xlink="http://www.w3.org/1999/xlink">
<g id="graph0" class="graph" transform="scale(1 1) rotate(0) translate(4 547)">
<title>models_diagram</title>
<polygon fill="none" stroke="none" points="-4,4 -4,-547 778.5,-547 778.5,4 -4,4"/>
<!-- _diagram_info -->
<g id="node1" class="node"><title>_diagram_info</title>
<text text-anchor="start" x="8" y="-514.1" font-family="Times,serif" font-size="13.00">Models diagram</text>
<text text-anchor="start" x="8" y="-500.1" font-family="Times,serif" font-size="13.00">Date: Mar 02 2017 &#45; 03:42</text>
<text text-anchor="start" x="8" y="-486.1" font-family="Times,serif" font-size="13.00">Migration version: 20170302063821</text>
<text text-anchor="start" x="8" y="-472.1" font-family="Times,serif" font-size="13.00">Generated by RailRoady 1.5.2</text>
<text text-anchor="start" x="8" y="-458.1" font-family="Times,serif" font-size="13.00">http://railroady.prestonlee.com</text>
</g>
<!-- ApplicationRecord -->
<g id="node2" class="node"><title>ApplicationRecord</title>
<ellipse fill="none" stroke="black" cx="309" cy="-489.5" rx="77.1866" ry="18"/>
<text text-anchor="middle" x="309" y="-485.8" font-family="Times,serif" font-size="14.00">ApplicationRecord</text>
</g>
<!-- Caught -->
<g id="node3" class="node"><title>Caught</title>
<path fill="none" stroke="black" d="M415,-0.5C415,-0.5 635,-0.5 635,-0.5 641,-0.5 647,-6.5 647,-12.5 647,-12.5 647,-109.5 647,-109.5 647,-115.5 641,-121.5 635,-121.5 635,-121.5 415,-121.5 415,-121.5 409,-121.5 403,-115.5 403,-109.5 403,-109.5 403,-12.5 403,-12.5 403,-6.5 409,-0.5 415,-0.5"/>
<text text-anchor="middle" x="525" y="-106.3" font-family="Times,serif" font-size="14.00">Caught</text>
<polyline fill="none" stroke="black" points="403,-98.5 647,-98.5 "/>
<text text-anchor="start" x="411" y="-83.3" font-family="Times,serif" font-size="14.00">id :integer</text>
<text text-anchor="start" x="411" y="-68.3" font-family="Times,serif" font-size="14.00">user_id :integer</text>
<text text-anchor="start" x="411" y="-53.3" font-family="Times,serif" font-size="14.00">pokemon_id :integer</text>
<text text-anchor="start" x="411" y="-38.3" font-family="Times,serif" font-size="14.00">created_at :timestamp without time zone</text>
<text text-anchor="start" x="411" y="-23.3" font-family="Times,serif" font-size="14.00">updated_at :timestamp without time zone</text>
<text text-anchor="start" x="411" y="-8.3" font-family="Times,serif" font-size="14.00">level :integer</text>
</g>
<!-- Pokemon -->
<g id="node4" class="node"><title>Pokemon</title>
<path fill="none" stroke="black" d="M416,-436.5C416,-436.5 636,-436.5 636,-436.5 642,-436.5 648,-442.5 648,-448.5 648,-448.5 648,-530.5 648,-530.5 648,-536.5 642,-542.5 636,-542.5 636,-542.5 416,-542.5 416,-542.5 410,-542.5 404,-536.5 404,-530.5 404,-530.5 404,-448.5 404,-448.5 404,-442.5 410,-436.5 416,-436.5"/>
<text text-anchor="middle" x="526" y="-527.3" font-family="Times,serif" font-size="14.00">Pokemon</text>
<polyline fill="none" stroke="black" points="404,-519.5 648,-519.5 "/>
<text text-anchor="start" x="412" y="-504.3" font-family="Times,serif" font-size="14.00">id :integer</text>
<text text-anchor="start" x="412" y="-489.3" font-family="Times,serif" font-size="14.00">name :character varying</text>
<text text-anchor="start" x="412" y="-474.3" font-family="Times,serif" font-size="14.00">description :text</text>
<text text-anchor="start" x="412" y="-459.3" font-family="Times,serif" font-size="14.00">created_at :timestamp without time zone</text>
<text text-anchor="start" x="412" y="-444.3" font-family="Times,serif" font-size="14.00">updated_at :timestamp without time zone</text>
</g>
<!-- Pokemon&#45;&gt;Caught -->
<g id="edge1" class="edge"><title>Pokemon&#45;&gt;Caught</title>
<path fill="none" stroke="#93d837" d="M468.413,-429.423C462.129,-420.172 456.684,-410.257 453,-400 416.639,-298.777 418.988,-260.036 453,-158 456.162,-148.513 460.67,-139.209 465.907,-130.352"/>
<ellipse fill="none" stroke="#93d837" cx="470.803" cy="-432.78" rx="4.00002" ry="4.00002"/>
<polygon fill="#93d837" stroke="#93d837" points="466.05,-130.125 475.177,-124.047 468.707,-125.89 471.365,-121.655 471.365,-121.655 471.365,-121.655 468.707,-125.89 467.553,-119.263 466.05,-130.125 466.05,-130.125"/>
</g>
<!-- User -->
<g id="node5" class="node"><title>User</title>
<path fill="none" stroke="black" d="M473.5,-158.5C473.5,-158.5 762.5,-158.5 762.5,-158.5 768.5,-158.5 774.5,-164.5 774.5,-170.5 774.5,-170.5 774.5,-387.5 774.5,-387.5 774.5,-393.5 768.5,-399.5 762.5,-399.5 762.5,-399.5 473.5,-399.5 473.5,-399.5 467.5,-399.5 461.5,-393.5 461.5,-387.5 461.5,-387.5 461.5,-170.5 461.5,-170.5 461.5,-164.5 467.5,-158.5 473.5,-158.5"/>
<text text-anchor="middle" x="618" y="-384.3" font-family="Times,serif" font-size="14.00">User</text>
<polyline fill="none" stroke="black" points="461.5,-376.5 774.5,-376.5 "/>
<text text-anchor="start" x="469.5" y="-361.3" font-family="Times,serif" font-size="14.00">id :integer</text>
<text text-anchor="start" x="469.5" y="-346.3" font-family="Times,serif" font-size="14.00">email :character varying</text>
<text text-anchor="start" x="469.5" y="-331.3" font-family="Times,serif" font-size="14.00">encrypted_password :character varying</text>
<text text-anchor="start" x="469.5" y="-316.3" font-family="Times,serif" font-size="14.00">reset_password_token :character varying</text>
<text text-anchor="start" x="469.5" y="-301.3" font-family="Times,serif" font-size="14.00">reset_password_sent_at :timestamp without time zone</text>
<text text-anchor="start" x="469.5" y="-286.3" font-family="Times,serif" font-size="14.00">remember_created_at :timestamp without time zone</text>
<text text-anchor="start" x="469.5" y="-271.3" font-family="Times,serif" font-size="14.00">sign_in_count :integer</text>
<text text-anchor="start" x="469.5" y="-256.3" font-family="Times,serif" font-size="14.00">current_sign_in_at :timestamp without time zone</text>
<text text-anchor="start" x="469.5" y="-241.3" font-family="Times,serif" font-size="14.00">last_sign_in_at :timestamp without time zone</text>
<text text-anchor="start" x="469.5" y="-226.3" font-family="Times,serif" font-size="14.00">current_sign_in_ip :inet</text>
<text text-anchor="start" x="469.5" y="-211.3" font-family="Times,serif" font-size="14.00">last_sign_in_ip :inet</text>
<text text-anchor="start" x="469.5" y="-196.3" font-family="Times,serif" font-size="14.00">created_at :timestamp without time zone</text>
<text text-anchor="start" x="469.5" y="-181.3" font-family="Times,serif" font-size="14.00">updated_at :timestamp without time zone</text>
<text text-anchor="start" x="469.5" y="-166.3" font-family="Times,serif" font-size="14.00">role :integer</text>
</g>
<!-- Pokemon&#45;&gt;User -->
<g id="edge2" class="edge"><title>Pokemon&#45;&gt;User</title>
<path fill="none" stroke="#6ed66e" d="M553.062,-427.169C555.647,-421.312 558.328,-415.235 561.064,-409.034"/>
<polygon fill="#6ed66e" stroke="#6ed66e" points="553.015,-427.276 544.861,-434.608 550.997,-431.85 548.978,-436.424 548.978,-436.424 548.978,-436.424 550.997,-431.85 553.095,-438.241 553.015,-427.276 553.015,-427.276"/>
<polygon fill="#6ed66e" stroke="#6ed66e" points="561.07,-409.021 569.224,-401.688 563.088,-404.446 565.107,-399.872 565.107,-399.872 565.107,-399.872 563.088,-404.446 560.99,-398.055 561.07,-409.021 561.07,-409.021"/>
</g>
<!-- User&#45;&gt;Caught -->
<g id="edge3" class="edge"><title>User&#45;&gt;Caught</title>
<path fill="none" stroke="#f43f8b" d="M563.289,-150.929C560.369,-144.148 557.494,-137.471 554.712,-131.009"/>
<ellipse fill="none" stroke="#f43f8b" cx="564.886" cy="-154.639" rx="4.00002" ry="4.00002"/>
<polygon fill="#f43f8b" stroke="#f43f8b" points="554.662,-130.893 554.841,-119.928 552.685,-126.3 550.707,-121.708 550.707,-121.708 550.707,-121.708 552.685,-126.3 546.574,-123.487 554.662,-130.893 554.662,-130.893"/>
</g>
</g>
</svg>
