<?xml version="1.0" encoding="UTF-8" standalone="no"?>
<!DOCTYPE svg PUBLIC "-//W3C//DTD SVG 1.1//EN"
 "http://www.w3.org/Graphics/SVG/1.1/DTD/svg11.dtd">
<!-- Generated by graphviz version 2.38.0 (20140413.2041)
 -->
<!-- Title: models_diagram Pages: 1 -->
<svg width="782pt" height="536pt"
 viewBox="0.00 0.00 782.50 536.00" xmlns="http://www.w3.org/2000/svg" xmlns:xlink="http://www.w3.org/1999/xlink">
<g id="graph0" class="graph" transform="scale(1 1) rotate(0) translate(4 532)">
<title>models_diagram</title>
<polygon fill="none" stroke="none" points="-4,4 -4,-532 778.5,-532 778.5,4 -4,4"/>
<!-- _diagram_info -->
<g id="node1" class="node"><title>_diagram_info</title>
<text text-anchor="start" x="8" y="-499.1" font-family="Times,serif" font-size="13.00">Models diagram</text>
<text text-anchor="start" x="8" y="-485.1" font-family="Times,serif" font-size="13.00">Date: Mar 02 2017 &#45; 03:14</text>
<text text-anchor="start" x="8" y="-471.1" font-family="Times,serif" font-size="13.00">Migration version: 20170302061035</text>
<text text-anchor="start" x="8" y="-457.1" font-family="Times,serif" font-size="13.00">Generated by RailRoady 1.5.2</text>
<text text-anchor="start" x="8" y="-443.1" font-family="Times,serif" font-size="13.00">http://railroady.prestonlee.com</text>
</g>
<!-- ApplicationRecord -->
<g id="node2" class="node"><title>ApplicationRecord</title>
<ellipse fill="none" stroke="black" cx="309" cy="-474.5" rx="77.1866" ry="18"/>
<text text-anchor="middle" x="309" y="-470.8" font-family="Times,serif" font-size="14.00">ApplicationRecord</text>
</g>
<!-- Caught -->
<g id="node3" class="node"><title>Caught</title>
<path fill="none" stroke="black" d="M415,-0.5C415,-0.5 635,-0.5 635,-0.5 641,-0.5 647,-6.5 647,-12.5 647,-12.5 647,-94.5 647,-94.5 647,-100.5 641,-106.5 635,-106.5 635,-106.5 415,-106.5 415,-106.5 409,-106.5 403,-100.5 403,-94.5 403,-94.5 403,-12.5 403,-12.5 403,-6.5 409,-0.5 415,-0.5"/>
<text text-anchor="middle" x="525" y="-91.3" font-family="Times,serif" font-size="14.00">Caught</text>
<polyline fill="none" stroke="black" points="403,-83.5 647,-83.5 "/>
<text text-anchor="start" x="411" y="-68.3" font-family="Times,serif" font-size="14.00">id :integer</text>
<text text-anchor="start" x="411" y="-53.3" font-family="Times,serif" font-size="14.00">user_id :integer</text>
<text text-anchor="start" x="411" y="-38.3" font-family="Times,serif" font-size="14.00">pokemon_id :integer</text>
<text text-anchor="start" x="411" y="-23.3" font-family="Times,serif" font-size="14.00">created_at :timestamp without time zone</text>
<text text-anchor="start" x="411" y="-8.3" font-family="Times,serif" font-size="14.00">updated_at :timestamp without time zone</text>
</g>
<!-- Pokemon -->
<g id="node4" class="node"><title>Pokemon</title>
<path fill="none" stroke="black" d="M416,-421.5C416,-421.5 636,-421.5 636,-421.5 642,-421.5 648,-427.5 648,-433.5 648,-433.5 648,-515.5 648,-515.5 648,-521.5 642,-527.5 636,-527.5 636,-527.5 416,-527.5 416,-527.5 410,-527.5 404,-521.5 404,-515.5 404,-515.5 404,-433.5 404,-433.5 404,-427.5 410,-421.5 416,-421.5"/>
<text text-anchor="middle" x="526" y="-512.3" font-family="Times,serif" font-size="14.00">Pokemon</text>
<polyline fill="none" stroke="black" points="404,-504.5 648,-504.5 "/>
<text text-anchor="start" x="412" y="-489.3" font-family="Times,serif" font-size="14.00">id :integer</text>
<text text-anchor="start" x="412" y="-474.3" font-family="Times,serif" font-size="14.00">name :character varying</text>
<text text-anchor="start" x="412" y="-459.3" font-family="Times,serif" font-size="14.00">description :text</text>
<text text-anchor="start" x="412" y="-444.3" font-family="Times,serif" font-size="14.00">created_at :timestamp without time zone</text>
<text text-anchor="start" x="412" y="-429.3" font-family="Times,serif" font-size="14.00">updated_at :timestamp without time zone</text>
</g>
<!-- Pokemon&#45;&gt;Caught -->
<g id="edge1" class="edge"><title>Pokemon&#45;&gt;Caught</title>
<path fill="none" stroke="#f14984" d="M468.413,-414.423C462.129,-405.172 456.684,-395.257 453,-385 416.639,-283.777 416.982,-244.345 453,-143 456.468,-133.241 461.524,-123.777 467.373,-114.893"/>
<ellipse fill="none" stroke="#f14984" cx="470.803" cy="-417.78" rx="4.00002" ry="4.00002"/>
<polygon fill="#f14984" stroke="#f14984" points="467.467,-114.759 476.886,-109.143 470.333,-110.661 473.198,-106.564 473.198,-106.564 473.198,-106.564 470.333,-110.661 469.511,-103.985 467.467,-114.759 467.467,-114.759"/>
</g>
<!-- User -->
<g id="node5" class="node"><title>User</title>
<path fill="none" stroke="black" d="M473.5,-143.5C473.5,-143.5 762.5,-143.5 762.5,-143.5 768.5,-143.5 774.5,-149.5 774.5,-155.5 774.5,-155.5 774.5,-372.5 774.5,-372.5 774.5,-378.5 768.5,-384.5 762.5,-384.5 762.5,-384.5 473.5,-384.5 473.5,-384.5 467.5,-384.5 461.5,-378.5 461.5,-372.5 461.5,-372.5 461.5,-155.5 461.5,-155.5 461.5,-149.5 467.5,-143.5 473.5,-143.5"/>
<text text-anchor="middle" x="618" y="-369.3" font-family="Times,serif" font-size="14.00">User</text>
<polyline fill="none" stroke="black" points="461.5,-361.5 774.5,-361.5 "/>
<text text-anchor="start" x="469.5" y="-346.3" font-family="Times,serif" font-size="14.00">id :integer</text>
<text text-anchor="start" x="469.5" y="-331.3" font-family="Times,serif" font-size="14.00">email :character varying</text>
<text text-anchor="start" x="469.5" y="-316.3" font-family="Times,serif" font-size="14.00">encrypted_password :character varying</text>
<text text-anchor="start" x="469.5" y="-301.3" font-family="Times,serif" font-size="14.00">reset_password_token :character varying</text>
<text text-anchor="start" x="469.5" y="-286.3" font-family="Times,serif" font-size="14.00">reset_password_sent_at :timestamp without time zone</text>
<text text-anchor="start" x="469.5" y="-271.3" font-family="Times,serif" font-size="14.00">remember_created_at :timestamp without time zone</text>
<text text-anchor="start" x="469.5" y="-256.3" font-family="Times,serif" font-size="14.00">sign_in_count :integer</text>
<text text-anchor="start" x="469.5" y="-241.3" font-family="Times,serif" font-size="14.00">current_sign_in_at :timestamp without time zone</text>
<text text-anchor="start" x="469.5" y="-226.3" font-family="Times,serif" font-size="14.00">last_sign_in_at :timestamp without time zone</text>
<text text-anchor="start" x="469.5" y="-211.3" font-family="Times,serif" font-size="14.00">current_sign_in_ip :inet</text>
<text text-anchor="start" x="469.5" y="-196.3" font-family="Times,serif" font-size="14.00">last_sign_in_ip :inet</text>
<text text-anchor="start" x="469.5" y="-181.3" font-family="Times,serif" font-size="14.00">created_at :timestamp without time zone</text>
<text text-anchor="start" x="469.5" y="-166.3" font-family="Times,serif" font-size="14.00">updated_at :timestamp without time zone</text>
<text text-anchor="start" x="469.5" y="-151.3" font-family="Times,serif" font-size="14.00">role :integer</text>
</g>
<!-- Pokemon&#45;&gt;User -->
<g id="edge2" class="edge"><title>Pokemon&#45;&gt;User</title>
<path fill="none" stroke="#4542e3" d="M553.062,-412.169C555.647,-406.312 558.328,-400.235 561.064,-394.034"/>
<polygon fill="#4542e3" stroke="#4542e3" points="553.015,-412.276 544.861,-419.608 550.997,-416.85 548.978,-421.424 548.978,-421.424 548.978,-421.424 550.997,-416.85 553.095,-423.241 553.015,-412.276 553.015,-412.276"/>
<polygon fill="#4542e3" stroke="#4542e3" points="561.07,-394.021 569.224,-386.688 563.088,-389.446 565.107,-384.872 565.107,-384.872 565.107,-384.872 563.088,-389.446 560.99,-383.055 561.07,-394.021 561.07,-394.021"/>
</g>
<!-- User&#45;&gt;Caught -->
<g id="edge3" class="edge"><title>User&#45;&gt;Caught</title>
<path fill="none" stroke="#688dc9" d="M561.273,-135.822C558.246,-129.035 555.279,-122.385 552.429,-115.993"/>
<ellipse fill="none" stroke="#688dc9" cx="562.946" cy="-139.572" rx="4.00002" ry="4.00002"/>
<polygon fill="#688dc9" stroke="#688dc9" points="552.415,-115.962 552.451,-104.996 550.378,-111.396 548.341,-106.83 548.341,-106.83 548.341,-106.83 550.378,-111.396 544.232,-108.663 552.415,-115.962 552.415,-115.962"/>
</g>
</g>
</svg>
