<?xml version="1.0" encoding="UTF-8" standalone="no"?>
<!DOCTYPE svg PUBLIC "-//W3C//DTD SVG 1.1//EN"
 "http://www.w3.org/Graphics/SVG/1.1/DTD/svg11.dtd">
<!-- Generated by graphviz version 2.38.0 (20140413.2041)
 -->
<!-- Title: models_diagram Pages: 1 -->
<svg width="511pt" height="230pt"
 viewBox="0.00 0.00 511.30 230.00" xmlns="http://www.w3.org/2000/svg" xmlns:xlink="http://www.w3.org/1999/xlink">
<g id="graph0" class="graph" transform="scale(1 1) rotate(0) translate(4 226)">
<title>models_diagram</title>
<polygon fill="none" stroke="none" points="-4,4 -4,-226 507.298,-226 507.298,4 -4,4"/>
<!-- _diagram_info -->
<g id="node1" class="node"><title>_diagram_info</title>
<text text-anchor="start" x="8" y="-207.6" font-family="Times,serif" font-size="13.00">Models diagram</text>
<text text-anchor="start" x="8" y="-193.6" font-family="Times,serif" font-size="13.00">Date: Mar 02 2017 &#45; 03:42</text>
<text text-anchor="start" x="8" y="-179.6" font-family="Times,serif" font-size="13.00">Migration version: 20170302063821</text>
<text text-anchor="start" x="8" y="-165.6" font-family="Times,serif" font-size="13.00">Generated by RailRoady 1.5.2</text>
<text text-anchor="start" x="8" y="-151.6" font-family="Times,serif" font-size="13.00">http://railroady.prestonlee.com</text>
</g>
<!-- ApplicationRecord -->
<g id="node2" class="node"><title>ApplicationRecord</title>
<ellipse fill="none" stroke="black" cx="309" cy="-183" rx="77.1866" ry="18"/>
<text text-anchor="middle" x="309" y="-179.3" font-family="Times,serif" font-size="14.00">ApplicationRecord</text>
</g>
<!-- Caught -->
<g id="node3" class="node"><title>Caught</title>
<ellipse fill="none" stroke="black" cx="448" cy="-18" rx="36.2938" ry="18"/>
<text text-anchor="middle" x="448" y="-14.3" font-family="Times,serif" font-size="14.00">Caught</text>
</g>
<!-- Pokemon -->
<g id="node4" class="node"><title>Pokemon</title>
<ellipse fill="none" stroke="black" cx="449" cy="-183" rx="44.393" ry="18"/>
<text text-anchor="middle" x="449" y="-179.3" font-family="Times,serif" font-size="14.00">Pokemon</text>
</g>
<!-- Pokemon&#45;&gt;Caught -->
<g id="edge1" class="edge"><title>Pokemon&#45;&gt;Caught</title>
<path fill="none" stroke="#8ab7cc" d="M444.705,-156.894C441.426,-134.603 437.813,-101.142 440,-72 440.637,-63.5179 441.838,-54.3361 443.121,-46.0356"/>
<ellipse fill="none" stroke="#8ab7cc" cx="445.323" cy="-160.904" rx="4.00001" ry="4.00001"/>
<polygon fill="#8ab7cc" stroke="#8ab7cc" points="443.13,-45.9796 449.192,-36.8417 443.941,-41.0458 444.752,-36.1119 444.752,-36.1119 444.752,-36.1119 443.941,-41.0458 440.311,-35.3822 443.13,-45.9796 443.13,-45.9796"/>
</g>
<!-- User -->
<g id="node5" class="node"><title>User</title>
<ellipse fill="none" stroke="black" cx="476" cy="-90" rx="27.0966" ry="18"/>
<text text-anchor="middle" x="476" y="-86.3" font-family="Times,serif" font-size="14.00">User</text>
</g>
<!-- Pokemon&#45;&gt;User -->
<g id="edge2" class="edge"><title>Pokemon&#45;&gt;User</title>
<path fill="none" stroke="#23b98f" d="M457.034,-154.922C460.55,-143.073 464.66,-129.218 468.154,-117.443"/>
<polygon fill="#23b98f" stroke="#23b98f" points="456.923,-155.297 449.764,-163.604 455.501,-160.09 454.078,-164.884 454.078,-164.884 454.078,-164.884 455.501,-160.09 458.393,-166.164 456.923,-155.297 456.923,-155.297"/>
<polygon fill="#23b98f" stroke="#23b98f" points="468.191,-117.319 475.35,-109.012 469.613,-112.526 471.036,-107.732 471.036,-107.732 471.036,-107.732 469.613,-112.526 466.721,-106.452 468.191,-117.319 468.191,-117.319"/>
</g>
<!-- User&#45;&gt;Caught -->
<g id="edge3" class="edge"><title>User&#45;&gt;Caught</title>
<path fill="none" stroke="#09abca" d="M466.311,-64.7779C463.818,-58.544 461.122,-51.8046 458.585,-45.4634"/>
<ellipse fill="none" stroke="#09abca" cx="467.879" cy="-68.6971" rx="4.00001" ry="4.00001"/>
<polygon fill="#09abca" stroke="#09abca" points="458.496,-45.241 458.961,-34.2849 456.639,-40.5986 454.782,-35.9562 454.782,-35.9562 454.782,-35.9562 456.639,-40.5986 450.604,-37.6275 458.496,-45.241 458.496,-45.241"/>
</g>
</g>
</svg>
